PathFileType	4	(X/Y/Z)	Kaydara	
DataRate	CameraRate	NumFrames	NumMarkers	Units	OrigDataRate	OrigDataStartFrame	OrigNumFrames	
24.00	24.00	13	28	mm	24.00	94	250	
Frame#	Time	reference			Hips			Spine			Spine1			Neck			Head			Head_End			LeftShoulder			LeftArm			LeftForeArm			LeftHand			LeftHand_End			RightShoulder			RightArm			RightForeArm			RightHand			RightHand_End			LeftUpLeg			LeftLeg			LeftFoot			LeftFoot_End			RightUpLeg			RightLeg			RightFoot			RightFoot_End			Tail			Tail1			Tail1_End			
		X1	Y1	Z1	X2	Y2	Z2	X3	Y3	Z3	X4	Y4	Z4	X5	Y5	Z5	X6	Y6	Z6	X7	Y7	Z7	X8	Y8	Z8	X9	Y9	Z9	X10	Y10	Z10	X11	Y11	Z11	X12	Y12	Z12	X13	Y13	Z13	X14	Y14	Z14	X15	Y15	Z15	X16	Y16	Z16	X17	Y17	Z17	X18	Y18	Z18	X19	Y19	Z19	X20	Y20	Z20	X21	Y21	Z21	X22	Y22	Z22	X23	Y23	Z23	X24	Y24	Z24	X25	Y25	Z25	X26	Y26	Z26	X27	Y27	Z27	X28	Y28	Z28	

94	3.875	0.00000	0.00000	0.00000	192.15477	469.28524	225.10895	192.15514	469.28521	225.10906	205.82900	447.68628	413.38150	185.29398	447.33320	637.52241	133.08711	475.68015	764.29373	-6.33028	411.32380	837.23926	226.20878	410.52151	614.93902	255.87726	356.51482	665.95935	232.54943	241.60904	569.23041	180.93077	77.44301	614.71686	169.21807	20.07597	656.61950	141.24168	421.31105	607.17238	85.44297	376.22794	642.61795	59.16108	255.12932	554.59242	58.56453	91.33717	624.27571	65.55018	28.31022	658.37556	235.06226	386.60527	169.66494	268.56544	263.52667	266.25286	223.45669	118.43105	169.75173	213.91166	12.65769	189.37029	139.41008	390.46449	172.60780	133.37354	258.91610	263.48447	145.99940	164.74267	110.60556	153.68353	59.07519	89.64513	189.58315	457.10769	157.49444	190.59104	349.01976	105.37969	188.67463	238.37536	58.96696 
95	3.917	0.00000	0.00000	0.00000	191.13251	469.39377	226.87714	191.13288	469.39374	226.87724	205.58559	447.37975	415.04340	183.78913	447.32746	639.06543	128.21290	475.12502	764.51922	-13.26849	410.31831	832.95246	225.17216	410.84970	616.79551	254.99045	357.02948	667.92544	233.48330	242.12001	570.77983	181.20951	77.93577	615.44500	169.28006	20.25823	656.85739	140.15341	420.82869	608.52660	84.60993	375.46849	644.01951	55.91107	253.99152	557.27952	58.08601	89.84566	626.09368	65.39822	26.68388	659.87411	234.29445	386.60538	171.79358	268.35026	263.27969	267.87171	223.39595	118.75936	170.43973	214.05400	12.85595	189.44487	138.63318	389.99127	175.01052	131.24404	261.74873	270.40045	145.82842	163.92441	120.00861	153.09740	56.91955	107.31515	188.41568	456.79958	159.34468	190.22726	348.36135	107.98484	188.94026	237.43964	62.21678 
96	3.958	0.00000	0.00000	0.00000	190.03952	469.54914	228.70544	190.03989	469.54912	228.70555	205.42531	447.13484	416.75046	182.81906	447.44557	640.69202	123.41668	474.30481	764.58719	-19.83263	409.70821	829.44792	224.46943	411.13427	618.64962	254.25689	357.33800	669.82270	232.44240	243.10806	571.94695	181.09743	78.52335	616.21385	169.65099	20.45230	657.21052	139.43096	420.65767	610.05278	83.90840	375.39784	645.70618	51.22920	253.52380	560.95421	57.85151	88.57370	627.52441	67.32011	25.80495	661.50126	233.45206	386.82027	173.72951	267.84510	263.25142	269.37412	223.43136	119.08537	171.17241	214.24861	12.99055	189.16032	137.78511	389.73214	177.22918	129.08764	264.31656	276.20026	145.11003	160.82504	129.80082	150.99010	53.06300	125.70576	187.18096	456.74533	161.21827	189.92176	348.04974	110.44702	189.61070	236.84870	65.34458 
97	4.000	0.00000	0.00000	0.00000	188.66882	469.75780	230.41473	188.66920	469.75779	230.41484	205.20685	446.48793	418.25791	181.66228	447.48243	642.10076	119.00428	473.87550	764.48318	-25.57478	408.56003	825.56334	223.57303	411.28845	620.36103	253.34107	357.53780	671.59331	232.32653	243.83781	572.92865	181.20382	79.09112	616.84886	169.83800	20.60717	657.27710	138.52790	420.38450	611.37603	82.55697	375.68669	647.03740	48.07163	254.40593	562.15016	57.08892	88.98416	627.25247	66.45896	25.70702	660.30094	232.26603	387.07140	175.52111	267.14772	263.05777	270.41009	223.22534	119.25130	171.46299	214.32096	13.12483	189.40409	136.59707	389.63190	179.23413	126.91323	266.70892	281.19566	143.38690	154.88127	141.11283	147.50650	46.96518	142.18543	185.70393	456.79454	162.96259	189.49591	347.82075	112.85973	190.40743	236.21890	68.76670 
98	4.042	0.00000	0.00000	0.00000	187.14897	469.91524	232.04559	187.14935	469.91522	232.04570	205.21208	446.21660	419.69461	180.25950	447.58016	643.38294	114.60402	473.47232	764.29211	-31.37257	408.17824	821.97677	222.36833	411.41916	621.97360	251.92305	357.62202	673.28054	231.76392	244.38313	573.90964	180.87584	79.46618	617.46181	169.71830	20.59780	657.38698	137.36581	420.35126	612.43782	81.08077	376.25728	648.35560	45.69217	254.66323	564.29228	56.10315	88.65797	627.67879	66.23872	25.25485	660.25655	230.92062	387.36780	177.08168	266.54982	263.11516	271.37841	223.14333	119.62533	171.74632	214.97998	13.38363	189.35481	135.24898	389.65367	180.90311	124.65506	268.74781	285.16014	141.76555	147.18500	153.51773	142.80337	39.30908	158.58834	184.14516	456.96063	164.59351	189.17843	347.78674	115.03859	191.59518	235.78579	72.02760 
99	4.083	0.00000	0.00000	0.00000	185.73936	470.32284	233.50586	185.73974	470.32282	233.50597	204.85446	446.41169	421.02366	178.69580	448.26323	644.57064	109.93213	473.83275	763.80919	-37.37284	408.37586	817.81513	221.03589	412.18492	623.48027	250.44684	358.53374	675.02212	229.83528	245.63475	575.35770	180.28155	80.23992	618.63550	169.41153	20.75723	657.72063	136.05738	420.81644	613.46566	79.28222	377.24190	649.24573	41.98573	255.09270	566.82817	55.11069	88.49580	628.12411	65.99719	24.97831	660.23343	229.58807	387.83670	178.51135	265.67937	263.05475	271.92930	222.83208	119.65959	171.91957	214.88753	13.37813	189.38765	133.91824	389.93402	182.48340	122.12311	269.69681	287.38275	139.62431	137.74251	166.21437	137.38776	29.91171	171.82859	182.65445	457.33042	166.06471	188.94201	348.01301	116.97161	193.01449	235.70601	74.89370 
100	4.125	0.00000	0.00000	0.00000	184.29001	470.56515	235.00641	184.29038	470.56513	235.00651	204.42921	446.69442	422.42214	177.02768	449.07525	645.81517	105.44286	474.29637	763.45692	-43.53879	409.36157	813.33618	219.63446	413.11512	625.06276	248.91238	359.68272	676.90674	227.85012	247.09171	576.98847	179.85836	81.13700	619.88156	169.49983	21.09860	658.24934	134.67720	421.36059	614.55473	77.66265	377.91254	650.10723	39.92106	255.42131	568.40304	54.46578	88.47008	628.40072	65.76351	24.86304	660.18910	228.00215	388.16231	179.77879	264.76970	263.02267	272.45158	222.38760	119.77403	172.03449	214.78697	13.45961	189.45497	132.33838	390.34675	183.84861	120.04553	269.36728	287.83343	137.24226	129.36193	176.01759	133.78813	21.57383	181.83102	181.12662	457.73185	167.53843	188.55248	348.50058	118.41257	194.47765	236.01218	77.04533 
101	4.167	0.00000	0.00000	0.00000	182.67082	470.41702	235.59357	182.67120	470.41700	235.59367	204.31817	446.67167	422.85704	175.70445	449.95193	646.08663	101.74337	475.51534	762.17430	-48.22098	409.91237	808.07574	218.59382	414.10174	625.72989	247.62323	360.86561	677.91441	226.52315	248.17837	578.11267	179.70905	81.82262	620.75298	169.55791	21.32833	658.45432	133.65583	421.88985	614.72880	76.30007	378.35233	649.61681	38.22400	255.27841	568.95003	54.06866	88.20722	628.28086	65.67687	24.61941	659.99578	226.16264	387.89747	180.36627	263.74528	262.74400	272.69278	221.27926	119.67199	172.05958	213.91927	13.32917	189.40994	130.51214	390.17031	184.69151	117.32632	268.15659	287.35004	137.14960	126.99707	177.43629	134.47555	19.20372	183.55560	179.31399	457.48984	168.15287	188.30392	348.37394	119.03196	196.30426	235.87435	78.04617 
102	4.208	0.00000	0.00000	0.00000	182.67082	470.41702	235.59357	182.67120	470.41700	235.59367	204.31817	446.67167	422.85704	175.70445	449.95193	646.08663	101.74337	475.51534	762.17430	-48.22098	409.91237	808.07574	218.59382	414.10174	625.72989	247.62323	360.86561	677.91441	226.52315	248.17837	578.11267	179.70905	81.82262	620.75298	169.55791	21.32833	658.45432	133.65583	421.88985	614.72880	76.30007	378.35233	649.61681	38.22400	255.27841	568.95003	54.06866	88.20722	628.28086	65.67687	24.61941	659.99578	226.16264	387.89747	180.36627	263.74528	262.74400	272.69278	221.27926	119.67199	172.05958	213.91927	13.32917	189.40994	130.51214	390.17031	184.69151	117.32632	268.15659	287.35004	137.14960	126.99707	177.43629	134.47555	19.20372	183.55560	179.31399	457.48984	168.15287	188.30392	348.37394	119.03196	196.30426	235.87435	78.04617 
103	4.250	0.00000	0.00000	0.00000	182.67082	470.41702	235.59357	182.67120	470.41700	235.59367	204.31817	446.67167	422.85704	175.70445	449.95193	646.08663	101.74337	475.51534	762.17430	-48.22098	409.91237	808.07574	218.59382	414.10174	625.72989	247.62323	360.86561	677.91441	226.52315	248.17837	578.11267	179.70905	81.82262	620.75298	169.55791	21.32833	658.45432	133.65583	421.88985	614.72880	76.30007	378.35233	649.61681	38.22400	255.27841	568.95003	54.06866	88.20722	628.28086	65.67687	24.61941	659.99578	226.16264	387.89747	180.36627	263.74528	262.74400	272.69278	221.27926	119.67199	172.05958	213.91927	13.32917	189.40994	130.51214	390.17031	184.69151	117.32632	268.15659	287.35004	137.14960	126.99707	177.43629	134.47555	19.20372	183.55560	179.31399	457.48984	168.15287	188.30392	348.37394	119.03196	196.30426	235.87435	78.04617 
104	4.292	0.00000	0.00000	0.00000	182.67082	470.41702	235.59357	182.67120	470.41700	235.59367	204.31817	446.67167	422.85704	175.70445	449.95193	646.08663	101.74337	475.51534	762.17430	-48.22098	409.91237	808.07574	218.59382	414.10174	625.72989	247.62323	360.86561	677.91441	226.52315	248.17837	578.11267	179.70905	81.82262	620.75298	169.55791	21.32833	658.45432	133.65583	421.88985	614.72880	76.30007	378.35233	649.61681	38.22400	255.27841	568.95003	54.06866	88.20722	628.28086	65.67687	24.61941	659.99578	226.16264	387.89747	180.36627	263.74528	262.74400	272.69278	221.27926	119.67199	172.05958	213.91927	13.32917	189.40994	130.51214	390.17031	184.69151	117.32632	268.15659	287.35004	137.14960	126.99707	177.43629	134.47555	19.20372	183.55560	179.31399	457.48984	168.15287	188.30392	348.37394	119.03196	196.30426	235.87435	78.04617 
105	4.333	0.00000	0.00000	0.00000	182.67082	470.41702	235.59357	182.67120	470.41700	235.59367	204.31817	446.67167	422.85704	175.70445	449.95193	646.08663	101.74337	475.51534	762.17430	-48.22098	409.91237	808.07574	218.59382	414.10174	625.72989	247.62323	360.86561	677.91441	226.52315	248.17837	578.11267	179.70905	81.82262	620.75298	169.55791	21.32833	658.45432	133.65583	421.88985	614.72880	76.30007	378.35233	649.61681	38.22400	255.27841	568.95003	54.06866	88.20722	628.28086	65.67687	24.61941	659.99578	226.16264	387.89747	180.36627	263.74528	262.74400	272.69278	221.27926	119.67199	172.05958	213.91927	13.32917	189.40994	130.51214	390.17031	184.69151	117.32632	268.15659	287.35004	137.14960	126.99707	177.43629	134.47555	19.20372	183.55560	179.31399	457.48984	168.15287	188.30392	348.37394	119.03196	196.30426	235.87435	78.04617 
106	4.375	0.00000	0.00000	0.00000	182.67082	470.41702	235.59357	182.67120	470.41700	235.59367	204.31817	446.67167	422.85704	175.70445	449.95193	646.08663	101.74337	475.51534	762.17430	-48.22098	409.91237	808.07574	218.59382	414.10174	625.72989	247.62323	360.86561	677.91441	226.52315	248.17837	578.11267	179.70905	81.82262	620.75298	169.55791	21.32833	658.45432	133.65583	421.88985	614.72880	76.30007	378.35233	649.61681	38.22400	255.27841	568.95003	54.06866	88.20722	628.28086	65.67687	24.61941	659.99578	226.16264	387.89747	180.36627	263.74528	262.74400	272.69278	221.27926	119.67199	172.05958	213.91927	13.32917	189.40994	130.51214	390.17031	184.69151	117.32632	268.15659	287.35004	137.14960	126.99707	177.43629	134.47555	19.20372	183.55560	179.31399	457.48984	168.15287	188.30392	348.37394	119.03196	196.30426	235.87435	78.04617 
